<svg width="161" height="52" viewBox="0 0 161 52" fill="none" xmlns="http://www.w3.org/2000/svg">
<path d="M113 25C111.144 20.3993 111.265 21.2253 107.836 17.7041V3.57989C107.836 1.59968 105.749 0.357732 104.084 1.34783L92.9707 7.82348C88.4902 5.91782 85.7713 5.74835 80.9217 5.74835C76.0721 5.74835 73.1968 5.97368 68.7164 7.87934L57.7054 1.34784C56.0411 0.357732 53.9536 1.59968 53.9536 3.57988V17.763C50.5244 21.2842 50.8559 20.2393 49 24.84" stroke="#333333"/>
<path d="M11.042 31.4447H11.304C12.2551 31.4447 13.3032 31.7844 14.4484 32.4638C15.0696 33.0267 15.4481 33.3081 15.5839 33.3081H15.7586C15.9139 33.2111 15.9915 33.1043 15.9915 32.9878V32.9296L15.846 32.4929C15.846 32.4153 15.9139 32.3667 16.0498 32.3473C16.1662 32.3861 16.273 32.4638 16.37 32.5802H16.4283V32.4929C16.4283 32.2794 16.2827 32.0465 15.9915 31.7941C16.0692 31.7359 16.273 31.7068 16.603 31.7068C16.6806 31.7068 17.03 31.9009 17.6511 32.2891C17.787 32.2891 17.8549 32.357 17.8549 32.4929V35.2297C17.8549 36.5108 17.7579 37.2484 17.5638 37.4425L17.5346 37.5298L17.622 37.6463V37.6754C17.622 37.9665 17.195 38.1121 16.3409 38.1121C16.1468 38.2092 16.0207 38.2577 15.9624 38.2577H15.846C15.846 37.9471 15.6227 37.3939 15.1763 36.5981C14.8463 35.3171 14.5358 34.5601 14.2446 34.3271C13.9341 33.9584 13.0606 33.6575 11.6243 33.4246L10.7799 33.3372L9.64444 33.4537L9.44064 33.2499C9.09126 33.2887 8.47013 33.706 7.57727 34.5018L7.51904 34.7348V34.793H7.6355C8.43131 34.133 9.00391 33.7157 9.35329 33.541V33.5993C8.88745 34.1039 8.03341 34.7542 6.79116 35.55C6.26709 35.9382 5.86918 36.472 5.59744 37.1513C5.11219 38.2577 4.86957 39.3446 4.86957 40.4122C4.86957 42.2562 5.09278 43.5955 5.53921 44.4301C6.31562 46.5458 7.20848 48.0501 8.2178 48.9429C9.51828 49.6611 10.7508 50.0202 11.9154 50.0202H12.3813C12.9636 50.0202 13.5944 49.8067 14.2737 49.3797C14.5067 48.9332 15.021 48.3897 15.8168 47.7492C16.4768 47.2251 16.8068 46.7981 16.8068 46.4681V46.3808L16.7776 45.5947C16.7776 45.5365 16.8941 45.4297 17.127 45.2744C17.127 45.1968 17.1756 45.1289 17.2726 45.0706H17.36L18.0587 45.1871H18.5537C18.709 45.1871 18.7866 45.323 18.7866 45.5947C18.9807 46.4876 19.0777 47.1572 19.0777 47.6036C19.0777 48.5936 18.9516 49.4088 18.6992 50.0493V50.1367L18.7284 50.3405L18.5828 50.5734V50.6316C18.5828 50.6704 18.7478 50.719 19.0777 50.7772V50.8354L17.1561 51.7671H17.0979C16.7874 51.3595 16.5447 50.8839 16.37 50.3405L16.3409 50.3113C16.0886 50.4084 15.6519 50.651 15.0307 51.0392C13.4973 51.6798 12.556 52 12.2066 52L10.4597 51.4759L10.1103 51.4177H9.9356L9.5571 51.5342C9.11067 51.5342 8.39249 51.3304 7.40258 50.9228C6.60677 50.7287 5.92741 50.1949 5.36452 49.3214C4.00582 47.361 3.32646 45.847 3.32646 44.7795C3.15177 44.0807 3.06443 43.5469 3.06443 43.1781C3.08384 42.984 3.21 42.887 3.44292 42.887L3.50115 43.149V43.2946H3.61762L3.73408 43.2073V43.0908C3.73408 42.8385 3.51086 42.6638 3.06443 42.5667C3.0062 42.5667 2.96738 41.5089 2.94797 39.3932C2.94797 38.9273 3.21 38.0636 3.73408 36.8019C3.7729 36.8019 3.82142 36.5205 3.87965 35.9576C3.95729 35.9382 4.03493 35.715 4.11257 35.2879C4.69487 34.628 5.41305 34.0166 6.26709 33.4537C6.63588 33.1043 7.19877 32.7646 7.95577 32.4347C9.41152 31.7747 10.4403 31.4447 11.042 31.4447ZM10.0521 32.0853V32.1726H10.1103C10.3626 32.1532 10.4888 32.095 10.4888 31.9979L10.4014 31.9688H10.3723C10.1782 31.9688 10.0715 32.0076 10.0521 32.0853ZM11.9737 31.9688H11.9445V32.0562L12.4104 32.1435H12.4686L12.5268 32.0562C12.5268 31.9979 12.3424 31.9688 11.9737 31.9688ZM7.54816 33.017V33.0752H7.57727C7.90724 32.9976 8.28574 32.8132 8.71276 32.522V32.4929L8.65453 32.4638H8.62542C8.19839 32.5414 7.83931 32.7258 7.54816 33.017ZM11.799 32.7549C11.799 32.8326 12.2163 32.9393 13.0509 33.0752L13.1965 33.1917H13.4003L13.4876 33.0752V33.017C13.2935 33.017 13.0897 32.9199 12.8762 32.7258C12.5074 32.5705 12.2454 32.4929 12.0901 32.4929C11.896 32.4929 11.799 32.5802 11.799 32.7549ZM15.2637 33.5993H15.1763V33.6575C15.3316 33.8904 15.4772 34.0069 15.613 34.0069H15.6422L15.7586 33.9195V33.8904C15.5839 33.6963 15.4189 33.5993 15.2637 33.5993ZM7.257 34.2107H7.34435C7.42199 34.1913 7.48022 34.1427 7.51904 34.0651H7.46081C7.38317 34.0651 7.31523 34.1136 7.257 34.2107ZM6.93674 34.5892H7.0532L7.16966 34.5018V34.3854C7.01438 34.3854 6.93674 34.4533 6.93674 34.5892ZM15.613 34.5018L15.5548 34.5892V34.6474L15.6422 34.7056L15.7586 34.5892L15.6422 34.5018H15.613ZM4.98603 35.2879C5.21895 35.2879 5.38393 35.2006 5.48098 35.0259V34.9386H5.36452C5.17042 34.9386 5.04426 35.055 4.98603 35.2879ZM16.603 36.3943L16.5447 36.4525V36.5399L16.6321 36.569L16.7194 36.4817L16.6903 36.3943H16.603ZM16.1371 37.0931V37.1513C16.4671 37.0543 16.6321 36.9572 16.6321 36.8602C16.5933 36.7825 16.5447 36.7243 16.4865 36.6855H16.37C16.2148 36.8407 16.1371 36.9766 16.1371 37.0931ZM16.2536 37.5589L16.1371 37.6754V37.821H16.2536C16.37 37.821 16.4477 37.7724 16.4865 37.6754V37.6463L16.4283 37.5589H16.2536ZM4.52018 38.84V38.8982H4.60753L4.7531 38.7818V38.578H4.63664C4.559 38.6362 4.52018 38.7235 4.52018 38.84ZM3.61762 39.1311H3.55938L3.44292 39.5679V39.8299H3.50115C3.5788 39.8299 3.61762 39.7329 3.61762 39.5388V39.1311ZM3.50115 40.1211H3.38469V40.2666H3.50115L3.55938 40.2084L3.50115 40.1211ZM4.28726 42.4503V42.9743C4.32608 43.4402 4.58812 44.0225 5.07337 44.7212L5.1316 44.7795H5.24806V44.6339C4.87927 43.5275 4.61723 42.4211 4.46195 41.3148H4.43284C4.33579 41.3148 4.28726 41.6933 4.28726 42.4503ZM3.73408 41.4895H3.70496L3.67585 41.6642V41.9262L3.76319 42.0427L3.85054 41.9553V41.7806C3.85054 41.6059 3.81172 41.5089 3.73408 41.4895ZM3.67585 43.644H3.5885V43.7313L3.70496 43.8187H3.73408V43.7313L3.67585 43.644ZM4.34549 44.8086L4.25815 44.8668C4.25815 44.9833 4.30667 45.0609 4.40372 45.0997H4.43284L4.52018 45.0706V44.9833L4.34549 44.8086ZM4.31638 45.5947H4.28726V45.6529C4.3649 46.0799 4.47166 46.2935 4.60753 46.2935H4.63664C4.71428 46.2935 4.7531 46.2546 4.7531 46.177L4.31638 45.5947ZM17.5055 46.3517L17.4182 46.3808V46.439L17.5638 46.5846H17.622C17.8355 46.5458 17.9423 46.4973 17.9423 46.439V46.3808L17.9131 46.3517H17.5055ZM17.8258 47.0213V47.1378C17.884 47.2543 17.9617 47.3125 18.0587 47.3125C18.1364 47.2348 18.1752 47.1184 18.1752 46.9631V46.8175C18.1752 46.7593 18.1364 46.7302 18.0587 46.7302C17.9034 46.7884 17.8258 46.8855 17.8258 47.0213ZM17.5055 47.1087L17.4182 47.1669V47.5454L17.5346 47.6619H17.5638L17.6511 47.5745V47.3707C17.6511 47.2348 17.6026 47.1475 17.5055 47.1087ZM5.85948 47.3998V47.4289C6.17004 48.0307 6.43208 48.3315 6.64559 48.3315V48.2151C6.2768 47.7104 6.01476 47.4387 5.85948 47.3998ZM4.89868 47.4872L4.84045 47.5745L4.89868 47.6619H4.95691L5.04426 47.5745L4.95691 47.4872H4.89868ZM16.603 47.8074L16.5447 47.8657V47.953H16.6903L16.7776 47.8657V47.8074H16.603ZM17.6511 47.8074H17.5346V47.9239H17.622L17.6511 47.8366V47.8074ZM5.18983 47.953H5.16072V47.9821C5.16072 48.0404 5.21895 48.1762 5.33541 48.3897H5.48098V48.3315C5.48098 48.1956 5.38393 48.0695 5.18983 47.953ZM16.3409 48.3315V48.3897H16.37L16.5447 48.3024V48.2151H16.4865C16.3894 48.2539 16.3409 48.2927 16.3409 48.3315ZM6.93674 48.4771L6.84939 48.5353C6.84939 48.7877 7.03379 48.9526 7.40258 49.0303H7.46081L7.57727 48.9429C7.42199 48.7294 7.20848 48.5741 6.93674 48.4771ZM17.7384 48.5353H17.7093V48.7391L17.7967 48.8265H17.8258V48.5936L17.7384 48.5353ZM5.7139 48.6518H5.62656C5.78184 49.0982 5.97594 49.3894 6.20886 49.5252H6.38355V49.3214C6.24768 49.1079 6.02446 48.8847 5.7139 48.6518ZM7.89754 49.467H7.72285V49.4961C7.72285 49.5544 7.98488 49.6417 8.50895 49.7582V49.6999C8.4119 49.5446 8.2081 49.467 7.89754 49.467ZM15.7586 49.8455V49.9037C15.8945 49.9037 16.0012 49.8358 16.0789 49.6999V49.6708H16.0498C15.8945 49.6708 15.7974 49.729 15.7586 49.8455ZM17.6511 49.8455L17.622 49.9037L17.6511 50.0493L17.7967 50.0202V49.9037L17.7093 49.8455H17.6511ZM7.16966 50.224L7.11143 50.3113C7.13084 50.389 7.54816 50.554 8.36338 50.8063C8.36338 50.8839 8.52836 50.9228 8.85834 50.9228L9.00391 50.8645V50.8354C8.9845 50.7578 8.62542 50.5831 7.92665 50.3113C7.86842 50.2531 7.70344 50.224 7.4317 50.224H7.16966ZM8.56718 50.224L8.53807 50.2531V50.3113C9.04273 50.6413 9.66385 50.8063 10.4014 50.8063H10.6052L10.6635 50.7481C9.63474 50.3987 8.93598 50.224 8.56718 50.224ZM10.9255 50.5443C11.1584 50.7966 11.5466 50.9228 12.0901 50.9228C12.7306 50.8645 13.0509 50.7675 13.0509 50.6316V50.5734C13.0509 50.4763 12.8083 50.4278 12.323 50.4278H11.8863C11.2458 50.4278 10.9255 50.4666 10.9255 50.5443ZM14.332 50.5443L14.2737 50.6316H14.3902L14.4484 50.5734L14.4193 50.5443H14.332ZM17.7093 50.8645L17.2726 50.9228V51.0392L17.4182 51.1557H17.5638C18.0296 51.078 18.2625 51.0004 18.2625 50.9228V50.8645H17.7093ZM12.5268 51.3595L11.6825 51.5924V51.6798L12.1483 51.7671H12.323C12.5171 51.7671 13.0024 51.5536 13.7788 51.1266V51.0392H13.7497C13.575 51.0392 13.1674 51.146 12.5268 51.3595Z" fill="#333333"/>
<path d="M40.4075 31.3283C41.5527 31.4836 42.1253 31.6971 42.1253 31.9688L43.5228 36.1323L44.4545 39.4514C44.8815 41.4312 45.4347 43.5663 46.114 45.8567C46.1529 45.8373 46.1917 45.8276 46.2305 45.8276V46.1188H46.2014C46.2208 46.177 46.2402 46.2449 46.2596 46.3226C46.2984 46.4002 46.3178 46.4584 46.3178 46.4973L46.871 47.691L47.0166 48.4189L46.9584 48.7391C47.1719 48.8944 47.4145 48.9818 47.6863 49.0012H48.2977C48.5112 49.04 48.6373 49.0885 48.6762 49.1467L48.5015 49.4961L48.5306 49.9911C48.5306 50.2046 48.4335 50.4084 48.2394 50.6025H48.123C47.9677 50.4472 47.8415 50.3696 47.7445 50.3696H47.6863C47.4922 50.3696 47.3854 50.4278 47.366 50.5443C47.366 50.6025 47.5407 50.6413 47.8901 50.6607V50.7481C47.8901 50.8257 47.7736 50.8742 47.5407 50.8936L47.1622 50.7772H46.871L45.0659 50.9519C44.6583 50.9519 44.1536 50.7092 43.5519 50.224L43.7848 49.9911V49.8746L43.4937 49.2632C43.4937 49.0303 43.8528 48.9138 44.5709 48.9138L44.6001 48.8556V48.7391C44.6001 47.8657 44.2021 46.8855 43.4063 45.7985H43.3772C41.3586 45.9538 39.0002 46.1576 36.3022 46.4099H35.6617C35.5841 46.4876 35.322 47.264 34.8756 48.7391C34.9532 48.8168 35.06 48.8556 35.1959 48.8556H35.7782C36.4575 48.8556 37.0398 49.1273 37.5251 49.6708V49.6999C37.5251 49.8358 37.2727 50.0978 36.7681 50.486C36.7681 50.6995 35.2929 50.8063 32.3426 50.8063C31.8573 50.7869 31.6147 50.7287 31.6147 50.6316L31.7312 50.2531V50.224C31.7312 50.1464 31.6535 49.9717 31.4983 49.6999C31.4983 49.5835 31.6729 49.4379 32.0223 49.2632L32.0514 49.1759V48.7391C32.0514 48.5644 32.1485 48.4771 32.3426 48.4771L32.459 48.5936L32.3426 48.9429L32.3717 48.972H32.4008C32.6337 48.6421 32.7502 48.4092 32.7502 48.2733V48.1568C32.7502 48.0404 32.7211 47.9821 32.6629 47.9821C32.857 47.6328 33.0122 47.1669 33.1287 46.5846L34.6427 42.392L35.1959 41.0236C35.1959 40.8489 35.3706 40.5578 35.7199 40.1502V40.0919L35.6326 39.8008C35.8461 39.6455 35.9529 39.5193 35.9529 39.4223L35.8655 39.3349C35.8655 39.1408 35.982 38.937 36.2149 38.7235L36.1858 38.5197L37.5251 34.5892C37.8551 34.0069 38.1559 33.3081 38.4276 32.4929C38.4859 32.4929 38.6315 32.3085 38.8644 31.9397C39.6602 31.5515 40.1746 31.3477 40.4075 31.3283ZM36.2149 44.2845V44.4301L36.3022 44.4883C38.845 44.0807 40.8442 43.8769 42.3 43.8769H43.4937L43.581 43.7604V43.7313C43.484 43.0326 43.3093 42.6832 43.0569 42.6832L41.2227 37.1513C41.0092 36.3555 40.7957 35.715 40.5822 35.2297C40.4851 34.9968 40.3687 34.8318 40.2328 34.7348C40.2328 34.9289 40.2231 35.1327 40.2037 35.3462C38.845 38.0636 37.8648 39.9075 37.263 40.878C36.9525 41.4798 36.6031 42.6152 36.2149 44.2845ZM47.2786 49.8746V49.9328H47.3078C47.696 49.9328 47.8901 49.8746 47.8901 49.7582L47.7445 49.6417C47.5892 49.6417 47.4339 49.7193 47.2786 49.8746ZM40.1163 34.1816H40.1454C40.3201 34.1816 40.4075 34.1039 40.4075 33.9486V33.8322H40.3201C40.1843 33.9098 40.1163 34.0263 40.1163 34.1816ZM40.9898 31.765H40.8442V31.9106L40.9315 31.9979H41.1645L41.2227 31.9397V31.9106C41.1839 31.8135 41.1062 31.765 40.9898 31.765ZM41.3392 44.3427L41.2809 44.4592L41.3392 44.5174H41.4847C41.6594 44.5174 41.7565 44.4786 41.7759 44.401V44.3427H41.3392ZM45.9102 46.7884H45.0659V46.9049L45.9102 46.8466V46.7884ZM34.6718 46.6428H34.6136L34.5845 46.8175L34.6136 46.9631H34.6718L34.7591 46.8758V46.672L34.6718 46.6428ZM44.833 50.7772V50.8354H44.9494C45.0659 50.8354 45.1338 50.7966 45.1532 50.719L45.095 50.6316C44.9591 50.6316 44.8718 50.6801 44.833 50.7772ZM33.5363 46.8466L33.3325 47.0213V47.1087C33.4878 47.1087 33.5751 47.0407 33.5945 46.9049L33.5363 46.8466ZM43.1443 43.3819L43.2608 43.2364L43.2899 43.2655V43.4984L43.2025 43.5858L43.1443 43.3819ZM36.7972 39.859L36.7099 39.2767L36.6807 39.4514V39.5388H36.7099C36.7681 39.8687 36.7972 39.9949 36.7972 39.9172V39.859ZM46.4343 48.448H46.4052V48.6518L46.4925 48.7391H46.5216V48.5353L46.4343 48.448ZM33.3325 48.7391L33.216 48.7682V48.8556L33.3034 48.9429H33.3325L33.3907 48.8556L33.3325 48.7391ZM40.2328 32.7549H40.2037V32.8132L40.2619 32.9005H40.3201V32.8132L40.2328 32.7549ZM39.1555 44.925H39.0682V45.0124H39.1555V44.925ZM36.5061 40.1793H36.4769V40.2666H36.5061V40.1793Z" fill="#333333"/>
<path d="M62.698 30.9207H63.0474C64.0179 30.9207 65.8036 31.0468 68.4046 31.2992L71.6364 31.3865H71.7237C73.1989 31.3865 74.2761 31.3186 74.9555 31.1827C75.1884 32.0562 75.3049 33.1043 75.3049 34.3271V34.4727C75.3049 34.9968 75.1884 35.2588 74.9555 35.2588L74.839 35.3753C74.839 35.4529 74.9555 35.5403 75.1884 35.6373H75.2466V35.7538C75.1302 35.9285 74.7905 36.0352 74.2276 36.0741C73.7618 36.0741 73.5288 35.9188 73.5288 35.6082L73.4997 34.9094L73.5288 33.5702C73.5288 33.3955 72.9562 33.3081 71.811 33.3081H70.0641L69.0742 33.279C68.8995 33.279 68.7637 34.8706 68.6666 38.0539C68.5501 40.6742 68.4919 42.4503 68.4919 43.3819V44.2554C68.4919 44.5077 68.4046 44.7698 68.2299 45.0415V45.0706C68.3852 45.0706 68.4725 45.2744 68.4919 45.682L68.4046 46.1188H68.3463V45.915L68.2881 48.1859C68.2881 48.4189 69.2489 48.6227 71.1705 48.7974C71.5393 48.9332 71.7237 49.1176 71.7237 49.3505C71.5684 49.6999 71.4908 50.1367 71.4908 50.6607C71.4325 50.6607 71.4034 50.7578 71.4034 50.9519L71.287 51.0683C69.2101 50.9519 67.2982 50.8936 65.5513 50.8936H64.8816C63.9888 50.8936 63.2997 50.9325 62.8145 51.0101C62.7757 50.9325 62.698 50.2919 62.5815 49.0885H62.6107L63.0183 49.2632H63.0474L63.1639 49.1759V49.1467C63.125 49.0497 63.028 49.0012 62.8727 49.0012L62.7854 48.9138V48.8556C62.7854 48.7974 63.2124 48.6906 64.0664 48.5353C64.0664 48.4771 64.7458 48.4383 66.1045 48.4189C66.2598 48.4189 66.3665 47.788 66.4247 46.5264L66.5703 44.663C66.3956 43.052 66.3083 42.0524 66.3083 41.6642L65.988 35.8994V35.1424L66.0462 34.0651L65.988 33.6866L66.1045 33.4537V33.3081C66.1045 33.1334 65.3378 33.0364 63.8044 33.017C62.698 33.0752 62.1448 33.1528 62.1448 33.2499C61.9701 33.6963 61.7954 34.366 61.6208 35.2588L61.4169 35.4335L61.3587 35.4044H61.1549C61.0773 35.482 60.9899 35.5209 60.8929 35.5209L60.0776 35.5791C60.0776 35.2103 60.0776 34.8318 60.0776 34.4436C60.0971 34.036 60.1068 33.7254 60.1068 33.5119C60.1262 33.2984 60.1359 33.1431 60.1359 33.0461L59.9903 31.9397C59.9903 31.7068 60.1359 31.5709 60.427 31.5321L60.7764 31.1827H60.922L61.184 31.5321H61.2423C61.5722 31.1245 62.0575 30.9207 62.698 30.9207ZM69.2198 32.0271L69.1325 32.1144C69.1325 32.2114 69.443 32.2794 70.0641 32.3182C70.3941 32.2794 70.5591 32.2406 70.5591 32.2017V32.1435C70.3262 32.0659 69.9089 32.0271 69.3071 32.0271H69.2198ZM73.0339 32.8423H72.7427V32.8714C72.7815 32.9684 72.8592 33.017 72.9756 33.017H73.1503V32.9587L73.0339 32.8423ZM73.7618 32.8423H73.6162V32.9587H73.7035L73.7618 32.8714V32.8423ZM67.4729 33.5702V33.5993L67.5602 33.6866C67.7543 33.6866 67.9484 33.5604 68.1425 33.3081V33.2499L67.997 33.2208C67.8223 33.2208 67.6476 33.3372 67.4729 33.5702ZM61.3005 33.3081L61.1549 33.4537V33.6866L61.2423 33.8031H61.3005L61.4461 33.6575V33.4537L61.3296 33.3081H61.3005ZM66.5703 33.541V33.6866C66.6286 33.9778 66.6868 34.1233 66.745 34.1233C66.8421 34.1233 66.9197 34.0166 66.9779 33.8031V33.5993C66.9779 33.4828 66.91 33.3858 66.7741 33.3081C66.6383 33.3081 66.5703 33.3858 66.5703 33.541ZM74.2276 33.4537H74.1694L74.082 33.8322L74.2276 33.8904L74.3149 33.8031V33.5702L74.2276 33.4537ZM67.764 34.5018H67.7349L67.6767 34.8512V35.3171H67.7349L67.764 34.9094V34.5018ZM74.0529 35.3171L73.9947 35.3753V35.5209H74.0529L74.1694 35.4044V35.3753L74.082 35.3171H74.0529ZM68.0261 37.1222H67.9678L67.9096 38.1703V38.8691C67.9096 39.3544 67.9581 39.597 68.0552 39.597H68.1134L68.2008 39.2185L68.0261 37.1222ZM66.7741 37.9956L66.7159 38.083L66.745 38.1412H66.7741V37.9956ZM67.0944 40.1793H67.007C66.8906 40.6645 66.8324 41.1886 66.8324 41.7515V42.1009C66.8324 43.0326 66.9197 43.4984 67.0944 43.4984C67.1526 43.4984 67.1914 43.3431 67.2109 43.0326L67.0362 41.6642L67.1817 41.0236L67.0944 40.1793ZM67.3273 44.2554H67.2109V44.7504L67.4729 45.1871V45.0415C67.4729 44.5174 67.4244 44.2554 67.3273 44.2554ZM64.5905 48.8556L64.4449 49.0012V49.1467C64.4449 49.1856 64.4837 49.205 64.5614 49.205L65.1728 49.1467V49.0594C65.0952 48.9235 64.9496 48.8556 64.7361 48.8556H64.5905ZM63.8917 48.972H63.8044L63.7462 49.0594L63.8335 49.1467H63.95L64.0082 49.0594L63.8917 48.972ZM70.0641 49.3797C70.3553 49.4573 70.695 49.4961 71.0832 49.4961L71.1414 49.4379V49.3505L70.8502 49.2632H70.2679C70.1321 49.2826 70.0641 49.3214 70.0641 49.3797ZM69.5109 49.7582L69.3945 49.8746C69.4527 50.0105 69.5498 50.0784 69.6856 50.0784H69.8603C69.9768 50.0784 70.0544 50.0493 70.0932 49.9911V49.9328C70.0932 49.8552 69.9574 49.797 69.6856 49.7582H69.5109ZM66.7159 49.8164L66.4539 49.8746V49.9911L66.7159 50.0202H67.1235C67.24 50.0202 67.3079 49.9814 67.3273 49.9037C67.2303 49.8455 67.0847 49.8164 66.8906 49.8164H66.7159ZM64.6778 49.9328L64.5323 49.9911V50.0784L64.9981 50.1658L65.3766 50.0784V50.0493L65.2601 49.9328H64.6778ZM63.3677 50.486V50.5443L63.455 50.6025H63.5132C63.6491 50.5249 63.717 50.389 63.717 50.1949V50.1658L63.6297 50.0784H63.6006C63.4453 50.1755 63.3677 50.3113 63.3677 50.486ZM71.054 50.1658L70.9376 50.2822V50.3696L71.054 50.4278L71.1414 50.3113V50.224L71.054 50.1658Z" fill="#333333"/>
<path d="M86.5025 32.2891L86.8519 32.4055C87.8418 32.3279 90.1225 32.2891 93.694 32.2891L95.0915 32.7258C95.9844 32.8423 96.5861 33.0267 96.8966 33.279C98.333 34.5407 99.0511 35.6276 99.0511 36.5399C98.9541 37.0446 98.7503 37.8404 98.4397 38.9273C97.7604 39.6261 97.1198 40.1987 96.5181 40.6451C96.5181 40.8198 96.7025 40.9751 97.0713 41.111C97.2654 41.2468 97.576 41.4021 98.003 41.5768C98.2359 41.8097 98.6144 42.2756 99.1385 42.9743C99.8373 43.6731 100.245 44.5174 100.361 45.5073L100.39 45.8276C100.39 46.0217 100.323 46.1188 100.187 46.1188V46.1479C100.187 46.2643 100.293 46.5167 100.507 46.9049V47.1669C100.507 47.3416 100.371 47.7298 100.099 48.3315C100.099 48.5838 99.8858 48.7488 99.4588 48.8265C99.2064 48.8265 98.9541 49.0012 98.7018 49.3505V49.4088C98.7018 49.4476 98.7794 49.4864 98.9347 49.5252V49.5544C98.8959 49.6514 98.8279 49.6999 98.7309 49.6999C98.7309 49.5835 98.7018 49.5252 98.6435 49.5252C98.6047 49.5252 98.5659 49.6029 98.5271 49.7582C98.1777 49.7582 97.7604 49.9134 97.2751 50.224V50.2822H97.3625C97.4789 50.2822 97.7604 50.1852 98.2068 49.9911V50.0202C97.9157 50.2919 97.3237 50.5249 96.4308 50.719C95.1885 51.2818 92.6846 51.5633 88.9191 51.5633V51.5051L88.89 51.3595C87.9971 51.3595 87.1819 51.5342 86.4443 51.8836C86.1337 51.8836 85.9785 51.3498 85.9785 50.2822C85.9785 50.1269 86.5608 49.8843 87.7254 49.5544C88.5794 49.4573 89.0064 49.37 89.0064 49.2923V49.2632C88.89 49.2632 88.7541 48.448 88.5988 46.8175C88.56 46.177 88.5018 45.7403 88.4241 45.5073C88.4241 45.2938 88.5018 45.0124 88.6571 44.663C88.6182 43.2655 88.5115 42.5667 88.3368 42.5667C88.2203 42.5667 88.1233 40.9848 88.0456 37.821V34.8512C87.6186 34.6765 87.3372 34.5892 87.2013 34.5892H86.9975C86.8616 34.5892 86.7743 34.6377 86.7355 34.7348V34.793L86.7646 35.0259C86.7646 35.0647 86.6287 35.385 86.357 35.9867V36.0449L85.8911 36.0741C85.8329 35.977 85.6485 35.9188 85.3379 35.8994C85.1632 35.8994 85.0468 35.3268 84.9885 34.1816C84.9303 33.8516 84.8236 33.4731 84.6683 33.0461C84.9594 32.6385 85.2797 32.4347 85.6291 32.4347C85.6291 32.3958 85.9202 32.3473 86.5025 32.2891ZM89.2102 33.2499L89.2685 33.279H90.0837C90.8213 33.279 91.1901 33.2014 91.1901 33.0461V33.017C91.1901 32.9976 91.1318 32.9684 91.0154 32.9296C89.8702 32.9878 89.2685 33.0946 89.2102 33.2499ZM87.9001 33.1625L88.6571 33.3955H88.7153C88.8317 33.3955 88.9288 33.3372 89.0064 33.2208C89.0064 33.1237 88.7832 33.0558 88.3368 33.017C88.0456 33.0364 87.9001 33.0849 87.9001 33.1625ZM91.9762 33.017H91.8306V33.1043H91.9762V33.017ZM96.6928 33.7157L96.6055 33.8031V33.8322L96.7219 33.9778H96.8966L96.9549 33.8904V33.8613L96.8384 33.7157H96.6928ZM89.7343 34.1233V34.1816L89.8217 34.298H89.9381C90.928 34.201 91.4618 34.0845 91.5394 33.9486L91.4812 33.8904C90.3166 33.9486 89.7343 34.0263 89.7343 34.1233ZM89.9381 34.9094C90.0934 39.0826 90.2293 41.1692 90.3457 41.1692L90.4331 41.2274H90.4622L93.1117 40.616C94.2763 40.4607 94.8586 40.3054 94.8586 40.1502C96.2561 39.0632 96.9549 38.3159 96.9549 37.9083V37.7336C96.7413 36.6272 96.6346 36.0061 96.6346 35.8702C96.6346 35.3656 96.2949 34.89 95.6156 34.4436C95.3632 34.3854 94.8877 34.3466 94.1889 34.3271C91.3551 34.4824 89.9381 34.6765 89.9381 34.9094ZM96.6928 34.5892H96.4308V34.6765C96.7802 34.9871 96.9549 35.4238 96.9549 35.9867C97.1101 36.5496 97.2169 36.8796 97.2751 36.9766H97.3334V36.7146C97.1587 35.2976 96.9452 34.5892 96.6928 34.5892ZM98.2942 35.2297H98.2068V35.3171L98.3524 35.4335H98.4397V35.3462L98.2942 35.2297ZM97.7701 35.8994L97.6827 35.9867L97.7119 36.1032H97.7992L97.9739 35.9576L97.8865 35.8994H97.7701ZM97.9739 36.6564L97.8865 36.5981L97.8574 36.6272V36.7728L97.9157 36.831L97.9739 36.8019V36.6564ZM88.4241 37.3842L88.3368 37.4716V37.7336L88.4241 37.7918H88.4532L88.5406 37.7336V37.6172C88.5406 37.4813 88.5018 37.4036 88.4241 37.3842ZM96.227 40.0337L96.1105 40.1502H96.1979L96.2561 40.0919V40.0337H96.227ZM92.0053 41.3148H92.0926V41.3439C93.2961 41.2468 93.8978 41.1401 93.8978 41.0236V40.9945H93.7522C92.6846 41.0139 92.1023 41.1207 92.0053 41.3148ZM95.0915 41.2857V41.3439H95.1206C95.5282 41.3439 96.0523 41.4409 96.6928 41.635C96.7511 41.635 96.7802 41.5962 96.7802 41.5186C96.6637 41.2468 96.4017 41.111 95.9941 41.111H95.6738C95.2856 41.111 95.0915 41.1692 95.0915 41.2857ZM97.1587 41.7224V41.7515C97.3916 42.0232 97.6051 42.1591 97.7992 42.1591V42.13C97.7992 41.9359 97.5857 41.8 97.1587 41.7224ZM92.1217 42.3629C92.1217 42.4017 92.1606 42.4211 92.2382 42.4211C92.7623 42.4017 93.3155 42.3241 93.8978 42.1882L94.9168 42.1591H95.2662L95.47 42.13V42.0718C95.47 41.9747 95.1788 41.9262 94.5965 41.9262H94.0725C93.0243 41.9262 92.3741 42.0718 92.1217 42.3629ZM91.8306 42.2465H91.7141V42.3047H91.8306V42.2465ZM96.2561 42.2465H96.1979V42.3629H96.2561V42.2465ZM90.2875 42.6541V42.7123H90.3748C90.8601 42.6541 91.1027 42.5764 91.1027 42.4794H91.0154C90.8407 42.4794 90.5981 42.5376 90.2875 42.6541ZM90.2293 43.0908L90.1419 43.2364L90.1128 43.8769C90.1904 47.196 90.336 49.0788 90.5495 49.5252C90.6466 49.8552 90.8795 50.0202 91.2483 50.0202L93.8395 50.1367C94.8877 50.0784 96.1688 49.632 97.6827 48.7974C98.4203 48.0598 98.7891 47.5551 98.7891 47.2834C98.8668 47.2834 98.9153 47.1863 98.9347 46.9922V46.9049C98.9347 46.0314 98.6727 45.0997 98.1486 44.1098C97.6051 43.5275 97.1684 43.2364 96.8384 43.2364H96.6055C96.489 43.1975 96.4308 43.1684 96.4308 43.149C96.4308 43.0714 96.4987 43.0326 96.6346 43.0326V42.9743C96.4987 42.7802 96.2852 42.6832 95.9941 42.6832H95.9649V42.7123L96.1105 42.887V42.9452H96.0523C95.1594 42.6541 94.4413 42.5085 93.8978 42.5085H93.7522C92.4129 42.5085 91.2386 42.7026 90.2293 43.0908ZM97.9739 42.7414L97.8865 42.7996C97.9642 43.0908 98.2068 43.3917 98.6144 43.7022H98.7018V43.5858C98.6435 43.314 98.4106 43.0326 98.003 42.7414H97.9739ZM97.6245 49.5835L97.6827 49.6417H97.7119C97.9642 49.6417 98.1583 49.4961 98.2942 49.205V49.1759H98.265C97.838 49.3117 97.6245 49.4476 97.6245 49.5835ZM89.3558 49.3505H89.1811V49.3797C89.2005 49.4573 89.2685 49.4961 89.3849 49.4961V49.4088L89.3558 49.3505ZM96.8384 49.9328V50.0493H96.9549C97.0907 50.0493 97.2169 49.962 97.3334 49.7873V49.6999C97.0034 49.7582 96.8384 49.8358 96.8384 49.9328ZM88.3659 50.4278V50.5734H88.89V50.4278H88.3659ZM91.3065 50.719L91.2483 50.7772H91.3939L91.3065 50.719ZM87.2595 50.8354L87.1722 50.8645C87.211 50.9616 87.2886 51.0101 87.4051 51.0101L87.5216 50.8645L87.4633 50.8354H87.2595Z" fill="#333333"/>
<path d="M120.352 30.6295L122.186 30.4548C123.584 30.7072 124.438 30.9207 124.748 31.0954C126.146 31.9688 126.98 32.7743 127.252 33.5119L128.271 35.055C128.523 36.142 128.776 37.6657 129.028 39.6261C128.873 42.0718 128.64 43.4499 128.329 43.7604C128.116 44.5757 127.805 45.4491 127.398 46.3808C126.466 48.3024 125.816 49.4476 125.447 49.8164C124.671 50.4957 123.981 50.8354 123.38 50.8354C123.108 50.8936 122.972 50.981 122.972 51.0975L121.691 51.5924L121.516 51.5633C120.682 51.6798 120.031 51.738 119.566 51.738H119.187C118.993 51.738 118.255 51.4954 116.974 51.0101C116.644 50.8936 116.227 50.554 115.722 49.9911C115.315 49.6999 115.111 49.4185 115.111 49.1467C114.568 48.3897 114.043 47.1475 113.539 45.42C113.325 44.8377 113.219 44.498 113.219 44.401L113.189 43.9351C113.189 40.7519 113.655 38.413 114.587 36.9184C114.898 36.4914 115.169 35.7441 115.402 34.6765L116.45 33.3372C116.45 32.8326 117.217 32.1047 118.75 31.1536C118.75 31.0565 119.284 30.8819 120.352 30.6295ZM124.282 31.1827H124.166V31.3574C124.748 31.7068 125.098 31.8815 125.214 31.8815V31.8232C124.787 31.3962 124.476 31.1827 124.282 31.1827ZM123.176 31.4447L123.089 31.5321V31.5612C123.749 32.0271 124.515 32.3764 125.389 32.6094V32.5511C125.253 32.3764 125 32.2212 124.632 32.0853C124.632 31.9882 124.341 31.8427 123.758 31.6486C123.642 31.5127 123.486 31.4447 123.292 31.4447H123.176ZM119.595 32.26V32.3182C119.672 32.3182 120.158 32.1532 121.051 31.8232L121.4 31.7068V31.5612C120.915 31.5612 120.313 31.7941 119.595 32.26ZM115.373 41.5186V43.9642C115.373 45.6529 115.81 46.7399 116.683 47.2251C117.557 48.0986 118.11 48.5353 118.343 48.5353C118.925 48.5353 119.401 48.7197 119.769 49.0885L120.031 49.1467L120.352 49.0885L120.614 49.3505H120.643C120.759 49.3505 120.905 49.2438 121.08 49.0303C121.973 48.8944 122.584 48.6906 122.914 48.4189C124.273 47.0602 124.952 46.3032 124.952 46.1479C125.767 44.2069 126.175 42.984 126.175 42.4794C126.641 40.6936 126.98 39.8008 127.194 39.8008H127.252V39.6261C127.252 39.3932 127.126 39.0244 126.874 38.5197C126.738 36.9669 126.553 36.0158 126.32 35.6664C125.913 34.5601 124.865 33.5799 123.176 32.7258C122.594 32.4541 122.244 32.3182 122.128 32.3182H121.924C121.051 32.7064 120.575 32.9005 120.497 32.9005C120.439 32.9005 120.41 32.9781 120.41 33.1334C119.323 33.871 118.673 34.3563 118.459 34.5892L117.033 36.4234C116.683 36.8699 116.382 37.4231 116.13 38.083C115.625 39.2476 115.373 40.3928 115.373 41.5186ZM116.421 34.8221V34.8512H116.479C117.877 33.6284 118.576 32.949 118.576 32.8132H118.547C118.12 32.8132 117.654 33.1819 117.149 33.9195C117.052 33.9195 116.897 34.0263 116.683 34.2398C116.509 34.2398 116.421 34.4339 116.421 34.8221ZM125.738 32.9005L125.622 33.017H125.855L125.738 32.9005ZM118.867 33.4828V33.5119H118.954C119.498 33.3761 119.769 33.2111 119.769 33.017L119.711 32.9587H119.624C119.119 33.0752 118.867 33.2499 118.867 33.4828ZM125.098 33.279C125.098 33.5119 125.369 33.7448 125.913 33.9778H126.029C126.087 33.9778 126.117 33.9292 126.117 33.8322C126.117 33.6769 125.777 33.4925 125.098 33.279ZM126.903 34.1233L126.815 34.2398V34.3563C126.815 34.5115 127.106 35.1133 127.689 36.1614L127.398 34.9386C127.398 34.3951 127.252 34.1233 126.961 34.1233H126.903ZM115.955 34.9677L115.897 35.055V35.1133H116.043V34.9677H115.955ZM115.839 35.3171H115.752V35.4044L115.839 35.3462V35.3171ZM116.479 35.9285L116.247 36.1614V36.2779H116.363C116.479 36.2779 116.538 36.1711 116.538 35.9576V35.9285H116.479ZM127.951 36.9475L127.776 36.8019L127.747 36.8602V36.8893L127.834 37.2095H127.951V36.9475ZM115.519 37.7336V37.9083L115.635 37.9956C115.635 37.8986 115.761 37.6269 116.014 37.1804L116.043 36.9475H115.955C115.761 37.1222 115.616 37.3842 115.519 37.7336ZM127.252 40.4413H127.106V40.5578H127.165L127.252 40.4704V40.4413ZM127.834 40.7325H127.776C127.698 41.0236 127.66 41.3536 127.66 41.7224V41.7515H127.689C127.805 41.7321 127.863 41.635 127.863 41.4603V40.9072L127.834 40.7325ZM128.3 42.5376V42.6541H128.417C128.533 42.2465 128.591 41.9359 128.591 41.7224V41.635H128.504C128.388 41.635 128.32 41.9359 128.3 42.5376ZM126.67 42.5376V42.7123H126.815L126.903 42.4503L126.844 42.1591H126.815C126.718 42.1591 126.67 42.2853 126.67 42.5376ZM125.942 45.42H126C126.136 45.42 126.262 45.1191 126.379 44.5174C126.573 44.1875 126.67 43.7507 126.67 43.2073V43.1199L126.641 43.0326C126.466 43.0326 126.262 43.7119 126.029 45.0706L126 45.1289L125.942 45.42ZM114.471 43.9642L114.383 44.0225V44.0516L114.471 44.1389H114.5L114.587 44.0516V44.0225L114.5 43.9642H114.471ZM113.626 44.401L113.539 44.5174V44.7504L113.597 44.8086H113.655L113.714 44.6339V44.4883L113.626 44.401ZM125.33 46.1188L125.389 46.3517C124.826 47.0893 124.544 47.4969 124.544 47.5745H124.748L124.777 47.5163H124.806L124.835 47.5745V47.6036L123.496 48.71L123.467 48.7974H123.496L123.525 48.8556H123.584C123.972 48.7197 124.428 48.3897 124.952 47.8657C125.437 47.2446 125.719 46.6914 125.796 46.2061V45.915C125.796 45.7791 125.748 45.6917 125.651 45.6529H125.592C125.495 45.6529 125.408 45.8082 125.33 46.1188ZM114.674 46.3226H114.645V46.6137C114.645 46.8466 114.771 47.0505 115.024 47.2251H115.111V47.1669C115.111 46.8952 114.965 46.6137 114.674 46.3226ZM124.632 49.8164V49.9328H124.661C125.418 49.4282 125.796 49.0497 125.796 48.7974H125.68C125.233 49.1467 124.884 49.4864 124.632 49.8164ZM121.283 49.205V49.2632H121.604L121.691 49.1467V49.0885H121.604C121.41 49.0885 121.303 49.1273 121.283 49.205ZM118.459 49.1759C118.459 49.3117 118.595 49.4282 118.867 49.5252V49.4961C118.867 49.3408 118.731 49.2341 118.459 49.1759ZM116.538 49.6126H116.479V49.729L116.567 49.7873H116.654V49.729L116.538 49.6126ZM121.633 50.4278V50.5443H121.808C122.429 50.389 122.739 50.1852 122.739 49.9328H122.71C122.555 49.9328 122.196 50.0978 121.633 50.4278ZM120.497 50.0202L120.061 50.0784V50.224H121.138V50.1658C121.138 50.0881 121.012 50.0396 120.759 50.0202H120.497ZM119.42 50.0493L119.333 50.1075L119.624 50.224V50.1658C119.604 50.0881 119.537 50.0493 119.42 50.0493ZM123.525 50.3405L123.467 50.4278V50.5443H123.584L123.7 50.4278L123.584 50.3405H123.525ZM116.741 50.6025V50.6607C116.741 50.7578 117.071 50.9034 117.731 51.0975C118.547 51.3498 119.1 51.4759 119.391 51.4759C119.857 51.4759 120.565 51.3692 121.516 51.1557V51.0975H120.963L118.983 51.1848L117.731 50.7481C117.343 50.651 117.013 50.6025 116.741 50.6025Z" fill="#333333"/>
<path d="M147.301 31.6194C147.631 31.7165 147.796 31.8427 147.796 31.9979L147.621 32.6385V32.7258L147.912 33.0752C147.912 33.444 147.66 33.6575 147.155 33.7157C146.942 33.7157 146.835 33.7448 146.835 33.8031L147.592 34.8221C147.67 35.1909 147.825 35.5306 148.058 35.8411C148.058 35.9382 148.737 36.9572 150.096 38.8982C150.096 39.0341 150.193 39.17 150.387 39.3058H150.416C150.785 38.937 151.076 38.51 151.289 38.0248C152.066 36.6466 152.609 35.647 152.92 35.0259C153.075 34.9677 153.153 34.8706 153.153 34.7348V34.7056C152.842 34.2786 152.629 34.0651 152.512 34.0651C151.988 34.0457 151.726 33.9584 151.726 33.8031C151.881 33.5507 151.959 33.3663 151.959 33.2499V33.0752L151.814 32.9005V32.8714L152.105 32.2017L152.396 32.1435H152.454L152.978 32.2309H155.802C156.637 32.2309 157.326 32.3667 157.87 32.6385V32.784C157.87 33.6187 157.763 34.1136 157.549 34.2689C157.355 34.5212 156.831 34.6474 155.977 34.6474C155.686 34.6668 155.54 34.7251 155.54 34.8221C155.54 34.8609 155.637 34.89 155.831 34.9094V34.9968C155.831 35.0356 155.666 35.1133 155.336 35.2297C155.336 35.3268 154.861 36.142 153.91 37.6754C153.114 39.0341 152.376 40.1793 151.697 41.111V41.1983C151.833 41.5089 152.231 42.2076 152.891 43.2946C154.288 46.7884 155.278 48.5353 155.861 48.5353C156.676 48.5353 157.452 48.8071 158.19 49.3505L158.161 49.7873L158.015 50.1075C158.015 50.554 157.976 50.7772 157.899 50.7772L157.113 50.7481C157.054 50.7481 156.831 50.8548 156.443 51.0683L155.307 51.0975C154.162 51.0975 153.192 50.9422 152.396 50.6316L152.134 50.0202L151.93 49.7873L152.134 49.8164L151.697 49.2632C151.697 49.0497 152.066 48.8071 152.803 48.5353L152.833 48.5062V48.448C152.386 47.2834 151.717 45.9829 150.824 44.5466C150.377 43.7507 150.096 43.3528 149.979 43.3528C149.649 43.6634 149.339 44.0904 149.048 44.6339C148.524 45.6626 147.747 46.7302 146.718 47.8366L146.282 48.4771C146.029 48.6712 145.903 48.8071 145.903 48.8847C146.408 49.0982 146.66 49.3991 146.66 49.7873C146.544 50.5637 146.359 50.9519 146.107 50.9519C146.01 51.2236 145.777 51.3595 145.408 51.3595C144.438 51.1654 143.797 51.0683 143.487 51.0683L142.322 51.0975C141.914 51.0975 141.652 50.7481 141.536 50.0493C141.536 49.7387 141.652 49.467 141.885 49.2341C141.924 49.0982 142.109 48.875 142.438 48.5644H142.468C142.739 48.8556 142.914 49.0012 142.992 49.0012C143.593 48.8265 143.894 48.5353 143.894 48.1277C145.175 46.5361 146.165 45.1677 146.864 44.0225C146.922 44.0031 147.165 43.6634 147.592 43.0034C147.883 42.7899 148.067 42.4988 148.145 42.13L148.786 41.1401V40.9945C148.436 40.2375 147.786 39.1991 146.835 37.8792C146.369 37.3163 145.923 36.5981 145.496 35.7247C144.874 34.7542 144.36 34.2689 143.952 34.2689C143.195 34.2689 142.817 34.1039 142.817 33.774C142.817 33.3858 142.778 33.1917 142.701 33.1917C143.147 32.3958 143.797 31.9979 144.651 31.9979C145.991 31.7456 146.874 31.6194 147.301 31.6194ZM154.9 32.7549H154.783V32.784H154.9V32.7549ZM144.098 33.1334H143.982V33.1917H144.098V33.1334ZM152.541 33.279V33.4246C152.852 33.6187 153.114 33.7157 153.328 33.7157H153.648V33.6284C153.609 33.5702 153.24 33.4537 152.541 33.279ZM155.569 33.7157H155.482V33.774H155.569V33.7157ZM145.554 33.9778H145.496V34.1525L145.583 34.2689H145.641V34.1816C145.641 34.0845 145.612 34.0166 145.554 33.9778ZM145.117 34.0942H145.059V34.1816L145.117 34.2689H145.263V34.2107L145.117 34.0942ZM154.172 35.3753V35.4335H154.347L154.492 35.2879V35.1715H154.463C154.288 35.1715 154.191 35.2394 154.172 35.3753ZM147.155 36.0158C147.155 36.2487 147.359 36.5787 147.767 37.0057C147.767 37.1998 148.009 37.5395 148.494 38.0248H148.582V37.9956C148.407 37.491 148.038 36.8796 147.475 36.1614C147.378 36.0643 147.272 36.0158 147.155 36.0158ZM152.076 37.326H152.105C152.376 37.0931 152.512 36.899 152.512 36.7437H152.396C152.182 36.899 152.076 37.0931 152.076 37.326ZM148.931 39.9755H148.844C148.863 40.2084 148.97 40.3249 149.164 40.3249V40.2375C149.106 40.1405 149.028 40.0531 148.931 39.9755ZM149.048 42.7123L148.873 42.9743V43.0034H148.96L149.368 42.4503V42.2756C149.193 42.2756 149.086 42.4211 149.048 42.7123ZM151.668 42.7123H151.61V42.7705C151.823 43.1587 152.105 43.5469 152.454 43.9351H152.512L152.541 43.906C152.541 43.7119 152.25 43.314 151.668 42.7123ZM150.532 42.7123H150.416C150.474 43.1005 150.746 43.5955 151.231 44.1972H151.289V44.1389C151.289 44.0419 151.037 43.5663 150.532 42.7123ZM146.864 45.0706V45.158H146.922L147.388 44.4592V44.3427H147.272C147.136 44.3427 147 44.5854 146.864 45.0706ZM151.61 44.5466L151.464 44.4301L151.435 44.4592V44.4883L151.522 44.6339H151.61V44.5466ZM152.25 45.5947C152.27 45.6723 152.328 45.7403 152.425 45.7985H152.512L152.629 45.6529C152.571 45.4588 152.512 45.3618 152.454 45.3618C152.318 45.3618 152.25 45.4394 152.25 45.5947ZM146.485 45.6238H146.573L146.718 45.5073V45.3909C146.563 45.3909 146.485 45.4685 146.485 45.6238ZM145.816 46.5846V46.672H145.845C145.923 46.672 146.097 46.507 146.369 46.177V46.0897H146.282C146.126 46.1673 145.971 46.3323 145.816 46.5846ZM146.427 47.3125L146.34 47.3998L146.427 47.4581L146.573 47.3707V47.3125H146.427ZM145.991 47.7492L145.903 47.8366V47.9239H145.932L146.049 47.8074V47.7492H145.991ZM152.891 49.0012L152.803 49.0594V49.0885L152.891 49.1759H153.066L153.153 49.0885V49.0594L153.066 49.0012H152.891ZM155.453 49.1759L155.336 49.205V49.2632L155.424 49.3505H155.54V49.2632L155.453 49.1759ZM152.833 49.6999V49.729L153.036 49.7582H153.328C153.444 49.7582 153.512 49.7193 153.531 49.6417V49.5835H153.153C152.959 49.5835 152.852 49.6223 152.833 49.6999ZM157.113 50.0202L157.171 50.0493C157.637 50.0105 157.87 49.9523 157.87 49.8746L157.782 49.7873H157.637C157.287 49.8455 157.113 49.9231 157.113 50.0202ZM152.483 49.9328L152.396 50.0202V50.1075L152.512 50.224H152.571C152.745 50.224 152.833 50.1464 152.833 49.9911V49.9328H152.483ZM153.619 50.4278L153.677 50.486H153.735C153.91 50.486 154.007 50.4472 154.026 50.3696V50.3113H153.852C153.696 50.3113 153.619 50.3502 153.619 50.4278ZM154.609 50.4278H154.288V50.486C154.308 50.5637 154.376 50.6025 154.492 50.6025L154.696 50.5734V50.486L154.609 50.4278ZM144.768 49.7582H144.244V49.8455H144.506L144.768 49.7873V49.7582ZM145.583 50.6316H145.263V50.6898C145.301 50.8063 145.379 50.8645 145.496 50.8645C145.612 50.8645 145.68 50.8257 145.699 50.7481L145.583 50.6316ZM142.089 50.8354V50.8645H142.817L142.904 50.8063V50.7772C142.866 50.6801 142.768 50.6316 142.613 50.6316H142.438C142.225 50.6316 142.109 50.6995 142.089 50.8354Z" fill="#333333"/>
<path d="M0.25 24.25H160.75V24.75H0.25V24.25Z" fill="black" stroke="black" stroke-width="0.5"/>
<path d="M122.88 18.4968C122.88 18.1463 122.743 17.8753 122.469 17.6838C122.199 17.4875 121.725 17.3193 121.046 17.1792C120.371 17.039 119.834 16.8708 119.435 16.6746C119.04 16.4783 118.746 16.2447 118.553 15.9737C118.365 15.7028 118.271 15.3804 118.271 15.0066C118.271 14.3852 118.541 13.8596 119.081 13.4297C119.625 12.9999 120.318 12.7849 121.161 12.7849C122.047 12.7849 122.765 13.0069 123.314 13.4507C123.868 13.8946 124.145 14.4623 124.145 15.1538H122.801C122.801 14.7987 122.645 14.4926 122.331 14.2357C122.023 13.9787 121.633 13.8502 121.161 13.8502C120.675 13.8502 120.294 13.953 120.02 14.1586C119.745 14.3642 119.608 14.6328 119.608 14.9645C119.608 15.2776 119.736 15.5135 119.991 15.6724C120.246 15.8312 120.706 15.9831 121.371 16.1279C122.04 16.2728 122.582 16.4456 122.996 16.6465C123.41 16.8474 123.716 17.0904 123.914 17.3754C124.116 17.6557 124.217 17.9992 124.217 18.4056C124.217 19.0831 123.938 19.6274 123.379 20.0386C122.82 20.4451 122.095 20.6483 121.204 20.6483C120.578 20.6483 120.025 20.5409 119.543 20.3259C119.061 20.111 118.683 19.812 118.409 19.4289C118.139 19.0411 118.004 18.6229 118.004 18.1744H119.341C119.365 18.6089 119.543 18.9546 119.875 19.2116C120.212 19.4639 120.655 19.5901 121.204 19.5901C121.71 19.5901 122.115 19.4919 122.418 19.2957C122.726 19.0948 122.88 18.8285 122.88 18.4968Z" fill="#333333"/>
<path d="M129.941 20.6483C128.882 20.6483 128.02 20.3119 127.355 19.6391C126.691 18.9616 126.358 18.0576 126.358 16.9269V16.6886C126.358 15.9364 126.505 15.2659 126.799 14.6772C127.098 14.0838 127.512 13.6213 128.041 13.2895C128.576 12.9531 129.154 12.7849 129.775 12.7849C130.791 12.7849 131.581 13.1097 132.145 13.7591C132.708 14.4085 132.99 15.3383 132.99 16.5484V17.0881H127.695C127.714 17.8356 127.938 18.4407 128.367 18.9032C128.8 19.3611 129.349 19.5901 130.014 19.5901C130.486 19.5901 130.885 19.4966 131.213 19.3097C131.54 19.1228 131.827 18.8752 132.073 18.5668L132.889 19.1836C132.234 20.1601 131.251 20.6483 129.941 20.6483ZM129.775 13.8502C129.236 13.8502 128.783 14.0418 128.417 14.4249C128.051 14.8033 127.825 15.336 127.738 16.0228H131.654V15.9247C131.615 15.2659 131.432 14.7566 131.105 14.3969C130.777 14.0324 130.334 13.8502 129.775 13.8502Z" fill="#333333"/>
<path d="M136.735 20.5082H135.399V9.74331H136.735V20.5082Z" fill="#333333"/>
<path d="M140.068 20.5082V13.9273H138.833V12.9251H140.068V12.2803C140.068 11.4347 140.316 10.7759 140.812 10.304C141.313 9.83208 142.019 9.59613 142.929 9.59613C143.469 9.59613 144.15 9.73863 144.974 10.0236L144.75 11.1169C144.148 10.8833 143.575 10.7665 143.03 10.7665C142.457 10.7665 142.043 10.8927 141.788 11.145C141.537 11.3926 141.412 11.7664 141.412 12.2663V12.9251H143.009V13.9273H141.412V20.5082H140.068ZM145.638 20.5082H144.295V12.9251H145.638V20.5082Z" fill="#333333"/>
<path d="M151.796 20.6483C150.737 20.6483 149.875 20.3119 149.21 19.6391C148.545 18.9616 148.213 18.0576 148.213 16.9269V16.6886C148.213 15.9364 148.36 15.2659 148.654 14.6772C148.952 14.0838 149.366 13.6213 149.896 13.2895C150.431 12.9531 151.009 12.7849 151.63 12.7849C152.646 12.7849 153.436 13.1097 154 13.7591C154.563 14.4085 154.845 15.3383 154.845 16.5484V17.0881H149.549C149.569 17.8356 149.793 18.4407 150.221 18.9032C150.655 19.3611 151.204 19.5901 151.868 19.5901C152.34 19.5901 152.74 19.4966 153.068 19.3097C153.395 19.1228 153.682 18.8752 153.927 18.5668L154.744 19.1836C154.089 20.1601 153.106 20.6483 151.796 20.6483ZM151.63 13.8502C151.091 13.8502 150.638 14.0418 150.272 14.4249C149.906 14.8033 149.679 15.336 149.593 16.0228H153.508V15.9247C153.47 15.2659 153.287 14.7566 152.959 14.3969C152.632 14.0324 152.189 13.8502 151.63 13.8502Z" fill="#333333"/>
</svg>
